<svg id="Ebene_1" data-name="Ebene 1" xmlns="http://www.w3.org/2000/svg" viewBox="0 0 100 100"><defs><style>.cls-1{fill:#d7012f;}.cls-2{fill:#ccc;}.cls-3{fill:#e6e6e6;}.cls-4{fill:#b3b3b3;}.cls-5{fill:#fba69c;}.cls-6{fill:#4d4d4d;}</style></defs><title>Zeichenfläche 1</title><circle class="cls-1" cx="50" cy="50" r="50"/><path class="cls-2" d="M44.84,28H23.18a7.6,7.6,0,0,1-7.58-7.58V19.36h2.17v1.09a5.42,5.42,0,0,0,5.41,5.41H44.84a5.42,5.42,0,0,0,5.42-5.41V19.36h2.16v1.09A7.59,7.59,0,0,1,44.84,28Z"/><path class="cls-3" d="M62.17,37.77H27.52V58.35A8.66,8.66,0,0,0,36.18,67h2.17V83.26h4.33V67H66.5V83.26h4.34V46.44A8.67,8.67,0,0,0,62.17,37.77Z"/><path class="cls-4" d="M57.84,71.34h4.33V83.26H57.84Z"/><path class="cls-5" d="M66.5,67H54.59a6.5,6.5,0,0,0,6.5,6.5H66.5Z"/><path class="cls-3" d="M23.18,25.86H44.84v13H23.18Z"/><path class="cls-6" d="M32.93,34.52H30.77V33.44a1.09,1.09,0,0,0-2.17,0v1.08H26.43V33.44a3.25,3.25,0,0,1,6.5,0Z"/><path class="cls-6" d="M41.59,34.52H39.43V33.44a1.09,1.09,0,0,0-2.17,0v1.08H35.1V33.44a3.25,3.25,0,1,1,6.49,0Z"/><path class="cls-5" d="M25.35,37.77H42.68A4.33,4.33,0,0,1,47,42.1h0a4.33,4.33,0,0,1-4.33,4.34H25.35A4.33,4.33,0,0,1,21,42.1h0A4.33,4.33,0,0,1,25.35,37.77Z"/><path class="cls-4" d="M23.18,26.94a6.5,6.5,0,0,0-6.49,6.5v2.17a6.49,6.49,0,0,0,6.49-6.5Z"/><path class="cls-4" d="M44.84,26.94v2.17a6.5,6.5,0,0,0,6.5,6.5V33.44A6.5,6.5,0,0,0,44.84,26.94Z"/><path class="cls-6" d="M28.6,41h2.17v2.17H28.6Z"/><path class="cls-6" d="M37.26,41h2.17v2.17H37.26Z"/><path class="cls-4" d="M29.68,63.76H34v19.5H29.68Z"/><path class="cls-2" d="M76.25,71.34H74.08V55.1a3.25,3.25,0,0,0-3.24-3.25V49.69a5.41,5.41,0,0,1,5.41,5.41Z"/><path class="cls-3" d="M75.17,69.18H74.08v3.25a5.42,5.42,0,0,0,5.42,5.41h1.08V74.59A5.41,5.41,0,0,0,75.17,69.18Z"/><path class="cls-2" d="M38.35,67V64.85a8.67,8.67,0,0,0-8.67-8.67H27.52v2.17A8.66,8.66,0,0,0,36.18,67Z"/><path class="cls-2" d="M70.84,46.44v1.08H69.75a8.66,8.66,0,0,1-8.66-8.66V37.77h1.08A8.67,8.67,0,0,1,70.84,46.44Z"/><path class="cls-2" d="M57.84,47.52h0a6.5,6.5,0,0,1,6.5,6.5h0a6.5,6.5,0,0,1-6.5,6.5h0a6.5,6.5,0,0,1-6.5-6.5h0A6.5,6.5,0,0,1,57.84,47.52Z"/><path class="cls-2" d="M44.3,52.93h0A2.71,2.71,0,0,1,47,55.64h0a2.71,2.71,0,0,1-2.71,2.71h0a2.71,2.71,0,0,1-2.71-2.71h0A2.72,2.72,0,0,1,44.3,52.93Z"/></svg>